<?xml version="1.0" encoding="utf-8"?>
<!-- Generator: Adobe Adobe Illustrator 24.2.0, SVG Export Plug-In . SVG Version: 6.00 Build 0)  -->
<svg version="1.1" id="Layer_1" xmlns="http://www.w3.org/2000/svg" xmlns:xlink="http://www.w3.org/1999/xlink" x="0px" y="0px"
	 width="184px" height="28px" viewBox="0 0 184 28" style="enable-background:new 0 0 184 28;" xml:space="preserve">
<style type="text/css">
	.st0{display:none;}
	.st1{display:inline;}
	.st2{fill:#FF04B4;}
	.st3{fill-rule:evenodd;clip-rule:evenodd;fill:#FF04B4;}
	.st4{opacity:0.2;fill:#FF04B4;enable-background:new    ;}
	.st5{opacity:0.5;fill:#FF04B4;enable-background:new    ;}
	.st6{fill-rule:evenodd;clip-rule:evenodd;}
	.st7{opacity:0.2;enable-background:new    ;}
	.st8{opacity:0.5;enable-background:new    ;}
</style>
<g class="st0">
	<g class="st1">
		<path class="st2" d="M32.1,13.7h11.2v2.8h-8.4v2.8h8.4v2.8h-8.4v5.6h-2.8L32.1,13.7L32.1,13.7L32.1,13.7z M43.3,16.5h2.8v2.8h-2.8
			V16.5z"/>
		<path class="st2" d="M48.1,13.7h2.8v5.6h8.4v-5.6h2.8v14h-2.8v-5.6h-8.4v5.6h-2.8C48.1,27.7,48.1,13.7,48.1,13.7z"/>
		<path class="st2" d="M65.1,13.7h2.8v11.2h-2.8V13.7z M76.3,13.7h2.8v11.2h-2.8V13.7z M67.9,24.9h8.4v2.8h-8.4V24.9z"/>
		<path class="st2" d="M82.1,13.7h2.8v2.8h2.8v2.8h-2.8v8.4h-2.8C82.1,27.7,82.1,13.7,82.1,13.7z M93.3,13.7h2.8v14h-2.8v-2.8h-2.8
			v-2.8h2.8V13.7z M87.7,19.3h2.8v2.8h-2.8V19.3z"/>
		<path class="st2" d="M99.1,13.7h2.8v5.6h5.6v2.8h-5.6v5.6h-2.8V13.7L99.1,13.7L99.1,13.7z M110.3,13.7h2.8v2.8h-2.8V13.7z
			 M107.5,16.5h2.8v2.8h-2.8V16.5z M107.5,22.1h2.8v2.8h-2.8V22.1z M110.3,24.9h2.8v2.8h-2.8V24.9z"/>
		<path class="st2" d="M118.9,13.7h11.2v2.8h-11.2C118.9,16.5,118.9,13.7,118.9,13.7z M116.1,16.5h2.8v2.8h-2.8V16.5z M118.9,19.3
			h8.4v2.8h-8.4V19.3z M127.3,22.1h2.8v2.8h-2.8V22.1z M116.1,24.9h11.2v2.8h-11.2V24.9z"/>
	</g>
	<g class="st1">
		<path class="st2" d="M32,0h10.7v2.1h-8.5v2.1h6.4v2.1h-6.4v2.1h8.5v2.1H32L32,0z"/>
		<path class="st2" d="M44.5,0h10.7v2.1h-4.3v8.5h-2.1V2.1h-4.3V0z"/>
		<path class="st2" d="M57,0h2.1v4.3h6.4V0h2.1v10.6h-2.1V6.4h-6.4v4.2H57V0z"/>
		<path class="st2" d="M69.4,0h10.7v2.1h-8.5v2.1H78v2.1h-6.4v2.1h8.5v2.1H69.4V0z"/>
		<path class="st2" d="M81.9,0h8.5v2.1H84v2.1h6.4v2.1H84v4.2h-2.1L81.9,0L81.9,0z M90.4,2.1h2.1v2.1h-2.1V2.1z M90.4,6.4h2.1v4.2
			h-2.1C90.4,10.6,90.4,6.4,90.4,6.4z"/>
		<path class="st2" d="M94.4,0H105v2.1h-8.5v2.1h6.4v2.1h-6.4v2.1h8.5v2.1H94.4V0z"/>
		<path class="st2" d="M106.8,0h2.1v8.5h-2.1V0z M115.4,0h2.1v8.5h-2.1V0z M109,8.5h6.4v2.1H109V8.5z"/>
		<path class="st2" d="M119.3,0h2.1v2.1h2.1v2.1h-2.1v6.4h-2.1V0z M127.9,0h2.1v10.6h-2.1V4.3h-2.1V2.1h2.1V0z M123.6,4.3h2.1v2.1
			h-2.1V4.3z"/>
	</g>
</g>
<g>
	<path class="st3" d="M152.4,12h1.4v1.4h-1.4V12z M153.9,13.4h1.4v1.4h-1.4V13.4z M153.9,16.4v1.5h-1.4v-1.5H151v-1.4h7.2v1.4H153.9
		L153.9,16.4z M158.2,16.4h1.4v1.5h-1.4V16.4z M159.6,17.8h1.4v1.5h-1.4V17.8z M159.6,19.3h1.4v1.5h-1.4V19.3z M162.5,22.2v1.5h-1.4
		v-1.5H162.5z M161,20.7v1.5h-1.4v-1.5H161z M152.4,20.7v-1.5h5.7v1.5H152.4z M152.4,17.8h1.4v1.5h-1.4V17.8z M152.4,20.7h1.4v2.9
		h-1.4V20.7z M152.4,23.6h1.4v1.5h-1.4V23.6z M152.4,25.1h1.4v1.5h-1.4V25.1z M151,26.5h1.4V28H151V26.5z M155.3,28v-1.5h2.9V28
		H155.3z M156.7,25.1h1.4v1.5h-1.4V25.1z M156.7,23.6h1.4v1.5h-1.4V23.6z M156.7,20.7h1.4v2.9h-1.4V20.7z M162.5,23.6h1.4v1.5h-1.4
		V23.6z M163.9,25.1h1.4v1.5h-1.4V25.1z M165.4,26.5h1.4V28h-1.4V26.5z M161,25.1h1.4v1.5H161V25.1z M159.6,26.5h1.4V28h-1.4V26.5z
		 M163.9,20.7h1.4v2.9h-1.4V20.7z M163.9,19.3h1.4v1.5h-1.4V19.3z M163.9,17.8h1.4v1.5h-1.4V17.8z M159.6,16.4v-1.4h7.2v1.4h-1.4
		v1.5h-1.4v-1.5H159.6L159.6,16.4z M159.6,13.4h1.4v1.4h-1.4V13.4z M159.6,12h1.4v1.4h-1.4V12z M182.6,13.4h1.4v1.4h-1.4V13.4z
		 M181.1,13.4h1.4v1.4h-1.4V13.4z M174,14.9v-1.4h7.2v1.4H174z M175.4,12h1.4v1.4h-1.4V12z M181.1,16.4v1.5H174v-1.5h1.4v-1.4h1.4
		v1.4H181.1L181.1,16.4z M169.6,17.8v-1.5h4.3v1.5H169.6z M181.1,20.7v1.5h-1.4v1.5h-1.4v-1.5H174v-1.5H181.1L181.1,20.7L181.1,20.7
		z M181.1,16.4h1.4v1.5h-1.4V16.4z M169.6,14.9v-1.4h4.3v1.4H169.6z M169.6,22.2v-1.5h4.3v2.9h-1.4v-1.5L169.6,22.2L169.6,22.2z
		 M168.2,13.4h1.4v1.4h-1.4V13.4z M169.6,17.8h1.4v1.5h-1.4V17.8z M169.6,19.3h1.4v1.5h-1.4V19.3z M181.1,20.7h1.4v1.5h-1.4V20.7z
		 M181.1,19.3h1.4v1.5h-1.4V19.3z M181.1,17.8h1.4v1.5h-1.4V17.8z M178.3,23.6h1.4v1.5h-1.4V23.6z M178.3,25.1h1.4v1.5h-1.4V25.1z
		 M178.3,28v-1.5h2.9V28H178.3z M181.1,26.5h1.4V28h-1.4V26.5z M182.6,26.5h1.4V28h-1.4V26.5z M182.6,25.1h1.4v1.5h-1.4V25.1z
		 M182.6,23.6h1.4v1.5h-1.4V23.6z M172.5,23.6h1.4v1.5h-1.4V23.6z M171.1,25.1h1.4v1.5h-1.4V25.1z M169.6,26.5h1.4V28h-1.4V26.5z
		 M168.2,26.5h1.4V28h-1.4V26.5z"/>
	<path class="st3" d="M155.7,9.1V10h-1.9V9.1H155.7z M161.4,9.1V10h-0.9V9.1H161.4z M156.7,8.2v0.9h-0.9V8.2H156.7z M152.9,0.9v6.4
		h0.9v0.9h-0.9v0.9H151V8.2h0.9V0.9H152.9z M160.4,8.2v0.9h-0.9V8.2H160.4z M157.6,7.3v0.9h-0.9V7.3C156.7,7.3,157.6,7.3,157.6,7.3z
		 M159.5,7.3v0.9h-0.9V7.3C158.6,7.3,159.5,7.3,159.5,7.3z M154.8,6.4v0.9h-0.9V6.4H154.8z M158.5,5.4v1.8h-0.9V5.4H158.5z
		 M155.7,5.4v0.9h-0.9V5.4H155.7z M159.5,0v5.4h-0.9V0H159.5z M156.7,1.8v1.8h-0.9V1.8H156.7z M155.7,0.9v0.9h-0.9V0.9H155.7z
		 M182.1,9.1V10h-1.9V9.1H182.1z M177.4,9.1V10h-0.9V9.1H177.4z M178.3,7.3v1.8h-0.9V7.3H178.3z M181.2,0.9v0.9h2.8v0.9h-4.7v1.8
		h3.8v4.6h-0.9V5.5h-2.8v1.8h-0.9V2.7h-1.9V1.8h3.8V0.9C180.2,0.9,181.2,0.9,181.2,0.9z M175.5,0v2.7h0.9v0.9h-0.9v2.7h0.9v0.9h-0.9
		v0.9h-1.9V7.3h0.9V3.6h-0.9V2.7h0.9V0H175.5z M180.2,0v0.9h-0.9V0H180.2z M172.7,9.1V10h-1.9V9.1H172.7z M168,9.1V10H167V9.1H168z
		 M164.2,9.1V10h-1.9V9.1H164.2z M170.8,8.2v0.9h-0.9V8.2H170.8z M167,8.2v0.9h-0.9V8.2H167z M165.1,8.2v0.9h-0.9V8.2H165.1z
		 M166.1,6.4v1.8h-0.9V6.4H166.1z M169.9,6.4v1.8h-0.9V6.4H169.9z M167,4.6v1.8h-0.9V4.6H167z M168.9,4.6v1.8H168V4.6H168.9z
		 M162.3,3.6V2.7h4.7V0h0.9v2.7h4.7v0.9H168v0.9H167V3.6H162.3z"/>
</g>
<g>
	<path class="st4" d="M142,0v28h-2V0H142z"/>
	<g>
		<path class="st5" d="M18,2h3v3h-3V2z"/>
		<path class="st5" d="M15,2h3v3h-3V2z"/>
		<path class="st5" d="M3,2h3v3H3V2z"/>
		<path class="st5" d="M0,2h3v3H0V2z"/>
		<path class="st2" d="M18,5h3v3h-3V5z"/>
		<path class="st2" d="M3,5h3v3H3V5z"/>
		<path class="st4" d="M0,5h3v3H0V5z"/>
		<path class="st4" d="M15,5h3v3h-3V5z"/>
		<path class="st2" d="M18,20h3v3h-3V20z"/>
		<path class="st2" d="M3,20h3v3H3V20z"/>
		<path class="st2" d="M12,20h3v3h-3V20z"/>
		<path class="st2" d="M15,20h3v3h-3V20z"/>
		<path class="st2" d="M9,20h3v3H9V20z"/>
		<path class="st2" d="M6,20h3v3H6V20z"/>
		<path class="st2" d="M21,17h3v3h-3V17z"/>
	</g>
</g>
<g>
	<g id="Layer_1_1_" class="st0">
		<g class="st1">
			<path class="st6" d="M152.4,12h1.4v1.4h-1.4V12z M153.9,13.4h1.4v1.4h-1.4V13.4z M153.9,16.4v1.5h-1.4v-1.5H151V15h7.2v1.4H153.9
				L153.9,16.4z M158.2,16.4h1.4v1.5h-1.4V16.4z M159.6,17.8h1.4v1.5h-1.4V17.8z M159.6,19.3h1.4v1.5h-1.4V19.3z M162.5,22.2v1.5
				h-1.4v-1.5H162.5z M161,20.7v1.5h-1.4v-1.5H161z M152.4,20.7v-1.5h5.7v1.5H152.4z M152.4,17.8h1.4v1.5h-1.4V17.8z M152.4,20.7
				h1.4v2.9h-1.4V20.7z M152.4,23.6h1.4v1.5h-1.4V23.6z M152.4,25.1h1.4v1.5h-1.4V25.1z M151,26.5h1.4V28H151V26.5z M155.3,28v-1.5
				h2.9V28H155.3z M156.7,25.1h1.4v1.5h-1.4V25.1z M156.7,23.6h1.4v1.5h-1.4V23.6z M156.7,20.7h1.4v2.9h-1.4V20.7z M162.5,23.6h1.4
				v1.5h-1.4V23.6z M163.9,25.1h1.4v1.5h-1.4V25.1z M165.4,26.5h1.4V28h-1.4V26.5z M161,25.1h1.4v1.5H161V25.1z M159.6,26.5h1.4V28
				h-1.4V26.5z M163.9,20.7h1.4v2.9h-1.4V20.7z M163.9,19.3h1.4v1.5h-1.4V19.3z M163.9,17.8h1.4v1.5h-1.4V17.8z M159.6,16.4V15h7.2
				v1.4h-1.4v1.5H164v-1.5H159.6L159.6,16.4z M159.6,13.4h1.4v1.4h-1.4V13.4z M159.6,12h1.4v1.4h-1.4V12z M182.6,13.4h1.4v1.4h-1.4
				V13.4z M181.1,13.4h1.4v1.4h-1.4V13.4z M174,14.9v-1.4h7.2v1.4H174z M175.4,12h1.4v1.4h-1.4V12z M181.1,16.4v1.5H174v-1.5h1.4V15
				h1.4v1.4H181.1L181.1,16.4z M169.6,17.8v-1.5h4.3v1.5H169.6z M181.1,20.7v1.5h-1.4v1.5h-1.4v-1.5H174v-1.5H181.1L181.1,20.7z
				 M181.1,16.4h1.4v1.5h-1.4V16.4z M169.6,14.9v-1.4h4.3v1.4H169.6z M169.6,22.2v-1.5h4.3v2.9h-1.4v-1.5L169.6,22.2L169.6,22.2z
				 M168.2,13.4h1.4v1.4h-1.4V13.4z M169.6,17.8h1.4v1.5h-1.4V17.8z M169.6,19.3h1.4v1.5h-1.4V19.3z M181.1,20.7h1.4v1.5h-1.4V20.7z
				 M181.1,19.3h1.4v1.5h-1.4V19.3z M181.1,17.8h1.4v1.5h-1.4V17.8z M178.3,23.6h1.4v1.5h-1.4V23.6z M178.3,25.1h1.4v1.5h-1.4V25.1z
				 M178.3,28v-1.5h2.9V28H178.3z M181.1,26.5h1.4V28h-1.4V26.5z M182.6,26.5h1.4V28h-1.4V26.5z M182.6,25.1h1.4v1.5h-1.4V25.1z
				 M182.6,23.6h1.4v1.5h-1.4V23.6z M172.5,23.6h1.4v1.5h-1.4V23.6z M171.1,25.1h1.4v1.5h-1.4V25.1z M169.6,26.5h1.4V28h-1.4V26.5z
				 M168.2,26.5h1.4V28h-1.4V26.5z"/>
			<path class="st6" d="M155.7,9.1V10h-1.9V9.1H155.7z M161.4,9.1V10h-0.9V9.1H161.4z M156.7,8.2v0.9h-0.9V8.2H156.7z M152.9,0.9
				v6.4h0.9v0.9h-0.9v0.9H151V8.2h0.9V0.9H152.9L152.9,0.9z M160.4,8.2v0.9h-0.9V8.2H160.4z M157.6,7.3v0.9h-0.9V7.3
				C156.7,7.3,157.6,7.3,157.6,7.3z M159.5,7.3v0.9h-0.9V7.3H159.5z M154.8,6.4v0.9h-0.9V6.4H154.8z M158.5,5.4v1.8h-0.9V5.4H158.5z
				 M155.7,5.4v0.9h-0.9V5.4H155.7z M159.5,0v5.4h-0.9V0H159.5z M156.7,1.8v1.8h-0.9V1.8H156.7z M155.7,0.9v0.9h-0.9V0.9H155.7z
				 M182.1,9.1V10h-1.9V9.1H182.1z M177.4,9.1V10h-0.9V9.1H177.4z M178.3,7.3v1.8h-0.9V7.3H178.3z M181.2,0.9v0.9h2.8v0.9h-4.7v1.8
				h3.8v4.6h-0.9V5.5h-2.8v1.8h-0.9V2.7h-1.9V1.8h3.8V0.9C180.2,0.9,181.2,0.9,181.2,0.9z M175.5,0v2.7h0.9v0.9h-0.9v2.7h0.9v0.9
				h-0.9v0.9h-1.9V7.3h0.9V3.6h-0.9V2.7h0.9V0H175.5L175.5,0z M180.2,0v0.9h-0.9V0H180.2z M172.7,9.1V10h-1.9V9.1H172.7z M168,9.1
				V10h-1V9.1H168z M164.2,9.1V10h-1.9V9.1H164.2z M170.8,8.2v0.9h-0.9V8.2H170.8z M167,8.2v0.9h-0.9V8.2H167z M165.1,8.2v0.9h-0.9
				V8.2H165.1z M166.1,6.4v1.8h-0.9V6.4H166.1z M169.9,6.4v1.8H169V6.4H169.9z M167,4.6v1.8h-0.9V4.6H167z M168.9,4.6v1.8H168V4.6
				H168.9z M162.3,3.6V2.7h4.7V0h0.9v2.7h4.7v0.9H168v0.9h-1V3.6H162.3z"/>
		</g>
		<g class="st1">
			<path class="st7" d="M142,0v28h-2V0H142z"/>
			<g>
				<path class="st8" d="M18,2h3v3h-3V2z"/>
				<path class="st8" d="M15,2h3v3h-3V2z"/>
				<path class="st8" d="M3,2h3v3H3V2z"/>
				<path class="st8" d="M0,2h3v3H0V2z"/>
				<path d="M18,5h3v3h-3V5z"/>
				<path d="M3,5h3v3H3V5z"/>
				<path class="st7" d="M0,5h3v3H0V5z"/>
				<path class="st7" d="M15,5h3v3h-3V5z"/>
				<path d="M18,20h3v3h-3V20z"/>
				<path d="M3,20h3v3H3V20z"/>
				<path d="M12,20h3v3h-3V20z"/>
				<path d="M15,20h3v3h-3V20z"/>
				<path d="M9,20h3v3H9V20z"/>
				<path d="M6,20h3v3H6V20z"/>
				<path d="M21,17h3v3h-3V17z"/>
			</g>
		</g>
	</g>
	<g id="Layer_2_1_">
		<g>
			<g>
				<path class="st2" d="M33.4,3v5.6H39v1.9h-7.5V1.1H39V3H33.4z M39,3h1.9v5.6H39V3z"/>
				<path class="st2" d="M42.7,1.1h1.9v3.8h-1.9V1.1z M44.6,6.8V4.9h5.6v1.9h-1.9v3.8h-1.9V6.8H44.6z M50.2,1.1h1.9v3.8h-1.9V1.1z"
					/>
				<path class="st2" d="M54,3h1.9v1.9H54V3z M54,10.5V8.7h7.5v1.9L54,10.5L54,10.5z M63.4,1.1V3h-7.5V1.1H63.4z M61.5,6.8h-5.6V4.9
					h5.6V6.8z M63.4,8.7h-1.9V6.8h1.9V8.7z"/>
				<path class="st2" d="M65.3,1.1h9.4V3h-3.8v7.5H69V3h-3.8V1.1H65.3z"/>
				<path class="st2" d="M76.5,3h1.9v5.6h-1.9V3z M84,1.1V3h-5.6V1.1H84z M78.4,10.5V8.7H84v1.9L78.4,10.5L78.4,10.5z M84,3h1.9v5.6
					H84V3z"/>
				<path class="st2" d="M89.7,8.7h7.5v1.9h-9.4V1.1h1.9V8.7z"/>
				<path class="st2" d="M106.6,3h1.9v7.5h-1.9V8.7H101v1.9h-1.9V3h1.9v3.8h5.6V3z M106.6,1.1V3H101V1.1H106.6z"/>
				<path class="st2" d="M112.2,4.9h5.6v1.9h-5.6v1.9h5.6v1.9h-7.5V1.1h7.5V3h-5.6V4.9z M119.7,4.9h-1.9V3h1.9V4.9z M119.7,8.7h-1.9
					V6.8h1.9V8.7z"/>
				<path class="st2" d="M129.1,3v1.9h-1.9V3h-5.6V1.1h9.4V3H129.1z M123.5,6.8h1.9v1.9h5.6v1.9h-9.4V8.7h1.9V6.8z M127.2,4.9v1.9
					h-1.9V4.9H127.2z"/>
			</g>
		</g>
		<g>
			<g>
				<path class="st2" d="M34.5,15.1h2.8V18h-2.8v8.5h-2.8V12.3h2.8V15.1z M37.4,23.6V18h2.8v5.7h-2.8V23.6z M43.1,12.3h2.8v14.2
					h-2.8V18h-2.9v-2.8h2.9V12.3z"/>
				<path class="st2" d="M60.1,15.1H63v11.4h-2.8v-2.8h-8.5v2.8h-2.8V15.1h2.8v5.7h8.5v-5.7H60.1z M60.1,12.3v2.8h-8.5v-2.8H60.1z"
					/>
				<path class="st2" d="M74.3,20.8h-5.7v5.7h-2.8V12.3h11.4v2.8h-8.5V18h8.5v5.7h-2.8L74.3,20.8L74.3,20.8z M77.2,15.1H80V18h-2.8
					V15.1z M80,26.5h-2.8v-2.8H80V26.5z"/>
				<path class="st2" d="M85.7,18h5.7v2.8h-5.7v5.7h-2.8V12.3h2.8V18z M94.2,15.1V18h-2.8v-2.8L94.2,15.1L94.2,15.1z M94.2,23.7
					h-2.8v-2.8h2.8V23.7z M97.1,12.3v2.8h-2.8v-2.8H97.1z M97.1,26.5h-2.8v-2.8h2.8V26.5z"/>
				<path class="st2" d="M114.1,15.1h-11.4V18h8.5v2.8h-8.5v2.8h11.4v2.8H99.9V12.3h14.2V15.1z"/>
				<path class="st2" d="M117,12.3h14.2v2.8h-5.7v11.4h-2.8V15.1H117V12.3z"/>
			</g>
		</g>
	</g>
</g>
</svg>
